<?xml version="1.0" standalone="no"?>
<!DOCTYPE svg PUBLIC "-//W3C//DTD SVG 20010904//EN"
 "http://www.w3.org/TR/2001/REC-SVG-20010904/DTD/svg10.dtd">
<svg version="1.0" xmlns="http://www.w3.org/2000/svg"
 width="344.000000pt" height="344.000000pt" viewBox="0 0 344.000000 344.000000"
 preserveAspectRatio="xMidYMid meet">

<g transform="translate(0.000000,344.000000) scale(0.100000,-0.100000)"
fill="#000000" stroke="none">
<path d="M1592 3089 c-578 -51 -1071 -477 -1207 -1041 -178 -741 273 -1487
1007 -1663 827 -199 1624 375 1697 1222 59 674 -396 1300 -1054 1452 -79 18
-292 43 -335 40 -8 -1 -57 -5 -108 -10z m234 -588 c22 -10 54 -34 70 -53 20
-24 41 -37 67 -42 84 -15 145 -125 154 -277 4 -62 1 -100 -11 -141 -14 -51
-14 -58 0 -87 24 -49 11 -116 -31 -158 -19 -19 -36 -47 -40 -63 -7 -32 -72
-137 -98 -159 -13 -10 -17 -30 -17 -89 0 -126 39 -163 231 -218 179 -51 282
-123 339 -237 16 -33 30 -65 30 -72 0 -25 -174 -152 -288 -209 -160 -81 -328
-120 -512 -120 -276 0 -510 85 -737 267 -35 28 -63 56 -63 62 0 30 65 137 109
178 61 57 128 91 255 129 200 60 236 93 236 220 0 59 -4 79 -17 89 -26 22 -91
127 -98 159 -4 16 -21 44 -40 63 -42 42 -55 109 -31 158 14 29 14 36 0 87 -12
41 -15 79 -11 141 11 193 94 316 246 368 85 29 198 31 257 4z"/>
</g>
</svg>
